<svg xmlns="http://www.w3.org/2000/svg" xmlns:xlink="http://www.w3.org/1999/xlink" width="500" zoomAndPan="magnify" viewBox="0 0 375 374.999991" height="500" preserveAspectRatio="xMidYMid meet" version="1.0"><defs><g/><clipPath id="57bf9ec523"><path d="M 17.230469 11.363281 L 357.769531 11.363281 L 357.769531 351.902344 L 17.230469 351.902344 Z M 17.230469 11.363281 " clip-rule="nonzero"/></clipPath><clipPath id="55282f84ea"><path d="M 187.5 11.363281 C 93.460938 11.363281 17.230469 87.59375 17.230469 181.632812 C 17.230469 275.671875 93.460938 351.902344 187.5 351.902344 C 281.539062 351.902344 357.769531 275.671875 357.769531 181.632812 C 357.769531 87.59375 281.539062 11.363281 187.5 11.363281 Z M 187.5 11.363281 " clip-rule="nonzero"/></clipPath></defs><g clip-path="url(#57bf9ec523)"><g clip-path="url(#55282f84ea)"><path fill="#ffffff" d="M 17.230469 11.363281 L 357.769531 11.363281 L 357.769531 351.902344 L 17.230469 351.902344 Z M 17.230469 11.363281 " fill-opacity="1" fill-rule="nonzero"/></g></g><g fill="#0287e0" fill-opacity="1"><g transform="translate(32.634063, 273.077994)"><g><path d="M 166.9375 -95.6875 L 166.9375 -58.609375 C 162.519531 -38.316406 152.851562 -22.957031 137.9375 -12.53125 C 123.03125 -2.101562 106.394531 3.109375 88.03125 3.109375 C 64.96875 3.109375 45.320312 -5.519531 29.09375 -22.78125 C 12.875 -40.039062 4.765625 -60.890625 4.765625 -85.328125 C 4.765625 -110.191406 12.703125 -131.179688 28.578125 -148.296875 C 44.460938 -165.421875 64.28125 -173.984375 88.03125 -173.984375 C 115.78125 -173.984375 137.734375 -164.25 153.890625 -144.78125 L 128.421875 -116.8125 C 119.304688 -131.457031 106.601562 -138.78125 90.3125 -138.78125 C 78.289062 -138.78125 68.035156 -133.566406 59.546875 -123.140625 C 51.054688 -112.710938 46.8125 -100.109375 46.8125 -85.328125 C 46.8125 -70.835938 51.054688 -58.445312 59.546875 -48.15625 C 68.035156 -37.863281 78.289062 -32.71875 90.3125 -32.71875 C 100.25 -32.71875 108.910156 -35.722656 116.296875 -41.734375 C 123.679688 -47.742188 127.375 -55.71875 127.375 -65.65625 L 88.03125 -65.65625 L 88.03125 -95.6875 Z M 166.9375 -95.6875 "/></g></g></g><g fill="#e07302" fill-opacity="1"><g transform="translate(204.35222, 273.077994)"><g><path d="M 12.421875 -170.875 L 74.765625 -170.875 C 92.171875 -170.875 106.257812 -166.382812 117.03125 -157.40625 C 127.800781 -148.4375 133.1875 -135.390625 133.1875 -118.265625 C 133.1875 -101.140625 127.726562 -87.707031 116.8125 -77.96875 C 105.90625 -68.238281 91.890625 -63.375 74.765625 -63.375 L 51.359375 -63.375 L 51.359375 0 L 12.421875 0 Z M 51.359375 -94.453125 L 62.34375 -94.453125 C 71.039062 -94.453125 78.1875 -96.210938 83.78125 -99.734375 C 89.375 -103.253906 92.171875 -109.019531 92.171875 -117.03125 C 92.171875 -125.175781 89.375 -131.007812 83.78125 -134.53125 C 78.1875 -138.050781 71.039062 -139.8125 62.34375 -139.8125 L 51.359375 -139.8125 Z M 51.359375 -94.453125 "/></g></g></g></svg>